# xmcd
#
# Track frame offsets:
#	150
#	10695
#	20457
#	32850
#	45120
#	59182
#	68367
#	84420
#	97282
#	108435
#
# Disc length: 1570 seconds
#
# Revision: 0
# Processed by: cddbd v1.5.2PL0 Copyright (c) Steve Scherf et al.
# Submitted via: dBpowerAMP V4.0
#
DISCID=7706200a
DTITLE=Freddy Fender - El Mejor De Freddy Fender Vol.2
DYEAR=1999
DGENRE=Country
TTITLE0=Como la quiero
TTITLE1=Cuando Lluene
TTITLE2=Hablame
TTITLE3=Vaya con Dios
TTITLE4=Mis brazos
TTITLE5=Mis sionos
TTITLE6=Noche de graduar
TTITLE7=Profundidad
TTITLE8=Un momento
TTITLE9=Triste amor
EXTD=
EXTT0=
EXTT1=
EXTT2=
EXTT3=
EXTT4=
EXTT5=
EXTT6=
EXTT7=
EXTT8=
EXTT9=
PLAYORDER=
